<?xml version="1.0" encoding="UTF-8" standalone="no"?>
<svg
   xmlns:dc="http://purl.org/dc/elements/1.1/"
   xmlns:cc="http://creativecommons.org/ns#"
   xmlns:rdf="http://www.w3.org/1999/02/22-rdf-syntax-ns#"
   xmlns:svg="http://www.w3.org/2000/svg"
   xmlns="http://www.w3.org/2000/svg"
   xmlns:sodipodi="http://sodipodi.sourceforge.net/DTD/sodipodi-0.dtd"
   xmlns:inkscape="http://www.inkscape.org/namespaces/inkscape"
   version="1.1"
   id="Layer_1"
   x="0px"
   y="0px"
   viewBox="0 0 800 800"
   style="enable-background:new 0 0 800 800;"
   xml:space="preserve"
   sodipodi:docname="Icon_Blue.svg"
   inkscape:version="1.0.1 (c497b03c, 2020-09-10)"><metadata
   id="metadata23"><rdf:RDF><cc:Work
       rdf:about=""><dc:format>image/svg+xml</dc:format><dc:type
         rdf:resource="http://purl.org/dc/dcmitype/StillImage" /><dc:title></dc:title></cc:Work></rdf:RDF></metadata><defs
   id="defs21" /><sodipodi:namedview
   pagecolor="#ffffff"
   bordercolor="#666666"
   borderopacity="1"
   objecttolerance="10"
   gridtolerance="10"
   guidetolerance="10"
   inkscape:pageopacity="0"
   inkscape:pageshadow="2"
   inkscape:window-width="1440"
   inkscape:window-height="900"
   id="namedview19"
   showgrid="false"
   inkscape:zoom="0.83375"
   inkscape:cx="389.2054"
   inkscape:cy="386.8066"
   inkscape:window-x="0"
   inkscape:window-y="0"
   inkscape:window-maximized="0"
   inkscape:current-layer="Layer_1" />
<style
   type="text/css"
   id="style10">
	.st0{fill:#449AC2;}
</style>
<g
   id="g16"
   transform="matrix(2.8257584,0,0,2.7788495,-744.58734,-657.78445)">
	<g
   id="g14">
		<path
   class="st0"
   d="m 540.4,377.8 c -1.3,-2.2 -3.6,-3.5 -6.2,-3.5 0,0 0,0 0,0 h -5 c -0.2,0 -0.4,-0.1 -0.6,-0.1 -0.6,-0.2 -1.3,-0.3 -1.9,-0.3 -0.4,-0.1 -0.8,-0.1 -1.2,-0.1 -0.9,0 -1.8,0 -2.7,0 -1.2,0 -2.6,-0.1 -4.2,0.1 -0.4,0 -0.7,0.1 -1,0.2 -1.2,-0.7 -2.7,-0.8 -3.9,-0.3 -0.3,0 -0.8,0 -1.6,0 h -0.3 c -0.2,0 -0.3,-0.1 -0.5,-0.1 -0.4,0 -0.8,-0.1 -1.2,-0.1 -0.5,-0.2 -1.1,-0.3 -1.5,-0.3 -0.2,0 -0.3,0 -0.5,0 -0.7,0 -1.5,0 -2.5,0.1 -1.7,0.1 -4.1,0.2 -5.5,0 -0.3,0 -0.5,0 -0.8,0 -1.8,0.1 -3.7,0.2 -5.3,0.4 -0.1,0 -0.1,0 -0.2,-0.1 -0.9,-0.6 -2,-0.8 -3.1,-0.5 -0.1,0 -0.2,0 -0.4,0 -0.6,0 -1.4,0 -2.1,0.2 -1.5,0 -2.8,0 -4.2,0 -0.7,-0.5 -1.7,-0.8 -2.8,-0.9 -0.5,-0.2 -1,-0.3 -1.5,-0.2 -0.9,0 -1.5,0.1 -2.3,0.1 -0.7,0.1 -1.5,0.1 -2.7,0.2 -0.4,0 -0.7,0.1 -1.1,0.2 -0.2,-0.1 -0.4,-0.2 -0.6,-0.2 l -0.8,-0.3 c -0.1,-1 -0.3,-1.9 -0.5,-2.7 -0.3,-1.6 -0.6,-3.2 -1,-4.4 l -0.1,-0.4 c 0,-0.5 -0.2,-0.9 -0.3,-1.3 -0.2,-0.9 -0.6,-1.7 -0.8,-2.3 l -0.1,-0.2 c -0.1,-0.3 -0.2,-0.7 -0.3,-1 -0.1,-0.2 -0.1,-0.2 -0.1,-0.5 -0.1,-0.5 -0.2,-1.3 -0.7,-2.6 -0.2,-0.5 -0.4,-0.9 -0.7,-1.3 -1,-2.8 -2.6,-5.5 -4.2,-8.4 -0.1,-0.6 -0.3,-1.2 -0.7,-1.7 -1.6,-2.5 -3.2,-4.5 -4.8,-6.3 -0.2,-0.4 -0.4,-0.8 -0.7,-1.1 l 17.9,-17.9 c 3.3,-3.1 6.1,-5.9 8.3,-8.2 l 3.1,-3 c 0.4,-0.2 0.8,-0.6 1.2,-1 0.4,-0.5 0.9,-1 1.2,-1.4 3.8,-3.7 7.8,-7.7 11.6,-11.9 l 0.3,-0.3 c 2.9,-2.9 2.8,-7.3 -0.1,-10.3 -3,-3 -7.4,-3 -10.3,-0.1 l -3.5,3.5 c -0.2,0.1 -0.3,0.2 -0.5,0.4 -0.6,0.3 -1.1,0.7 -1.5,1.2 -0.3,0.2 -0.7,0.5 -0.9,0.8 -0.6,0.7 -1.2,1.2 -1.9,1.9 -0.9,0.8 -1.9,1.8 -2.9,3 -0.2,0.3 -0.4,0.6 -0.6,0.9 -1.4,0.3 -2.5,1.3 -3,2.6 -0.2,0.2 -0.5,0.6 -1.2,1.1 -0.1,0.1 -0.2,0.2 -0.2,0.2 -0.1,0.1 -0.2,0.2 -0.4,0.3 -0.3,0.2 -0.6,0.5 -0.9,0.8 -0.5,0.2 -1,0.5 -1.3,0.8 -0.1,0.1 -0.2,0.2 -0.4,0.3 -0.5,0.5 -1,1.1 -1.7,1.8 -1.2,1.3 -2.8,3 -3.8,3.8 -0.2,0.2 -0.4,0.3 -0.6,0.6 -1.2,1.3 -2.5,2.8 -3.5,4 -0.1,0 -0.1,0.1 -0.2,0.1 -1,0.3 -2,0.9 -2.6,1.8 -0.1,0.1 -0.1,0.1 -0.3,0.3 -0.4,0.5 -0.9,1 -1.3,1.7 -1.1,1 -2,2 -3,2.9 -0.9,0.1 -1.8,0.6 -2.7,1.4 -0.5,0.2 -0.9,0.5 -1.2,0.9 -0.6,0.6 -1,1.1 -1.5,1.7 -0.4,0.5 -0.9,1.1 -1.8,2 -0.2,0.3 -0.5,0.5 -0.6,0.9 -0.2,0.1 -0.4,0.1 -0.6,0.2 l -1.1,0.5 c -0.1,0 -0.1,0.1 -0.2,0.1 l -1.4,-1 c -0.2,-0.2 -0.5,-0.3 -0.7,-0.4 l -0.3,-0.2 c -0.2,-0.1 -0.5,-0.3 -0.8,-0.4 -0.5,-0.5 -1,-0.9 -1.6,-1.2 -0.1,-0.1 -0.3,-0.1 -0.4,-0.2 l -0.6,-0.2 c -0.8,-0.3 -1.6,-0.7 -2.4,-1 -0.3,-0.4 -0.8,-0.7 -1.2,-1 -2.5,-1.3 -4.4,-1.9 -5.9,-2.3 -2,-0.8 -3.9,-1.6 -5.9,-2.2 -0.6,-0.6 -1.5,-1.1 -2.4,-1.2 -0.5,-0.1 -1.2,-0.3 -2,-0.5 l -0.3,-0.1 c -0.6,-0.1 -1.2,-0.3 -2.1,-0.5 -0.6,-0.1 -1.3,-0.3 -2,-0.4 -1,-0.2 -2,-0.4 -2.9,-0.5 0,-0.1 0,-0.2 0,-0.3 0.1,-0.3 0.1,-0.5 0.1,-0.8 0,-0.2 0,-0.5 0.1,-0.8 0.1,-0.7 0.2,-1.5 0.1,-2.3 0,-0.4 -0.1,-0.8 -0.2,-1.2 0,-0.2 0,-0.3 0,-0.5 0,-0.4 0,-0.8 -0.1,-1.2 0.1,-0.3 0.1,-0.6 0.2,-0.9 0.1,-0.6 0.1,-1.5 -0.1,-2.4 0,0 0,-0.1 0,-0.1 0.1,-0.3 0.1,-0.5 0.1,-0.8 0,-0.7 -0.1,-1.3 -0.2,-1.7 0,-0.2 0,-0.4 0,-0.7 0,-0.1 0,-0.2 0,-0.4 0.2,-0.7 0.3,-1.5 0.1,-2.3 0,-0.2 0,-0.3 -0.1,-0.6 0,-0.6 -0.1,-1.2 -0.2,-1.7 0,-0.1 0,-0.2 -0.1,-0.3 0.1,-0.7 0.1,-1.4 0,-1.9 0.5,-1.1 0.5,-2.2 0.6,-3 0,-0.3 0,-0.5 -0.1,-0.9 l -0.2,-0.9 c 0.1,-0.3 0.1,-0.6 0.1,-0.9 0,-0.1 0,-0.4 0,-0.8 0,-0.2 0,-0.3 0,-0.5 -0.2,-1.2 -0.1,-2.6 0,-4 v -0.6 -3.7 c 0,-0.1 0,-0.2 0,-0.3 v -0.5 c -0.1,-0.5 -0.1,-1 -0.1,-1.6 0,-0.4 0.1,-0.8 0.1,-1.2 0,-0.1 0,-0.3 0,-0.4 v -5.9 c 0,-0.1 0,-0.2 0,-0.3 -0.1,-1.3 -0.3,-2.6 -0.2,-3.8 0,-0.4 0.1,-0.8 0.1,-1.3 0,-0.1 0,-0.3 0,-0.4 v -3.7 c 0,-0.1 0,-0.3 0,-0.4 l -0.1,-0.5 c -0.1,-0.6 -0.2,-1.3 -0.2,-1.9 0,-0.6 0,-1.1 0.1,-1.7 0.1,-1.1 0.1,-2.3 -0.1,-3.7 -0.1,-0.4 -0.2,-0.9 -0.3,-1.3 -0.1,-0.3 -0.1,-0.5 -0.2,-0.8 -0.1,-0.3 -0.2,-0.6 -0.3,-0.9 -1,-1.8 -2.2,-3 -3.9,-3.7 -3.7,-1.6 -7.5,0.3 -9.4,2.7 -0.7,0.9 -1.3,1.9 -1.8,3.1 -0.1,0.2 -0.1,0.4 -0.2,0.6 -0.1,0.4 -0.2,0.8 -0.3,1.2 -0.2,0.8 -0.3,1.5 -0.4,2.1 0,0.2 0,0.3 0,0.5 l 0.1,4.8 c 0,1.1 0,2.3 0,3.4 0,0.8 -0.1,1.6 -0.1,2.4 0,0.1 0,0.2 0,0.2 v 2 c 0,0.2 0,0.4 0.1,0.6 0.1,0.3 0.2,0.6 0.3,1 l 0.1,0.4 c 0.1,0.5 0.1,1.3 0,2.1 l -0.4,6.1 c 0,0.5 -0.1,1 -0.1,1.5 0,0.1 0,0.2 0,0.2 0,0.6 0,1.1 0.1,1.7 0,0.3 0.1,0.6 0.1,0.9 0.1,0.5 0.2,1.2 0.1,1.5 -0.1,0.3 -0.2,0.8 -0.2,1.2 -0.1,0.5 -0.1,1.1 0,1.7 0,0.3 0.1,0.7 0.1,1.1 0,0.3 0,0.5 0,0.8 -0.1,0.4 -0.2,1 -0.2,1.9 0,0.4 0,0.8 0.1,1.3 0,1.2 0,2.4 0.1,3.6 0,0.5 0.1,1.1 0.1,1.6 -0.2,0.6 -0.3,1.2 -0.3,1.8 v 0.5 c 0,0 0,0.2 0,0.2 0.1,1.4 0.2,2.8 0.3,4.1 -0.1,0.3 -0.1,0.6 -0.1,0.8 0,3.5 0.3,4.8 0.6,5.6 0,0.6 0,1 0.1,1.3 -0.4,1.1 -0.5,2.3 -0.5,3.9 -0.6,0.1 -1.2,0.2 -1.8,0.2 -0.3,0 -0.6,0 -0.9,0.1 -2.6,0.5 -6.7,1.4 -9.9,2.6 -0.2,0 -0.5,0.1 -0.7,0.1 -1.2,0.3 -2.1,0.7 -2.9,1.2 -0.4,0.1 -0.7,0.2 -1.1,0.3 -0.6,0.3 -1.2,0.5 -1.8,0.8 -1,0.4 -2.1,0.9 -3.3,1.5 -0.3,0.1 -0.6,0.2 -0.9,0.3 -0.9,0.5 -1.8,1 -2.6,1.5 -0.3,0.2 -0.7,0.4 -1,0.6 -0.4,0.3 -0.9,0.5 -1.2,0.8 -0.4,0.1 -0.7,0.3 -1,0.5 -1.6,0.9 -2.3,1.6 -2.9,2.2 l -0.3,0.3 c -0.4,0.3 -0.8,0.6 -1.1,0.8 -0.1,0.1 -0.2,0.2 -0.3,0.2 -0.2,-0.2 -0.5,-0.4 -0.8,-0.7 -0.1,-0.2 -0.3,-0.4 -0.5,-0.6 -0.2,-0.2 -0.3,-0.4 -0.5,-0.6 -0.5,-0.6 -0.9,-1.2 -1.5,-1.7 -0.3,-0.3 -0.6,-0.5 -1,-0.7 -0.1,-0.1 -0.2,-0.2 -0.3,-0.3 -0.3,-0.3 -0.6,-0.6 -0.9,-0.8 -0.1,-0.3 -0.3,-0.5 -0.5,-0.7 -0.4,-0.5 -0.9,-1.1 -1.8,-1.7 0,0 -0.1,-0.1 -0.1,-0.1 -0.1,-0.2 -0.3,-0.4 -0.4,-0.6 -0.5,-0.6 -1.1,-0.9 -1.5,-1.1 -0.1,-0.1 -0.3,-0.3 -0.4,-0.4 -0.1,-0.1 -0.2,-0.2 -0.3,-0.3 -0.3,-0.7 -0.9,-1.3 -1.5,-1.7 -0.1,-0.1 -0.3,-0.2 -0.5,-0.4 -0.5,-0.4 -0.9,-0.8 -1.3,-1 -0.1,-0.1 -0.2,-0.1 -0.3,-0.1 -0.4,-0.6 -0.9,-1 -1.3,-1.3 -0.4,-1.1 -1.1,-1.9 -1.6,-2.4 -0.3,-0.3 -0.6,-0.6 -0.8,-0.7 l -0.7,-0.5 c -0.1,-0.2 -0.3,-0.5 -0.5,-0.7 -1.4,-1.6 -2.5,-2.3 -3.3,-2.7 -0.3,-0.6 -0.7,-1.1 -1.1,-1.5 l -0.2,-0.2 c -0.3,-0.4 -0.8,-0.8 -1.2,-1 -1,-1.3 -2.2,-2.6 -3.6,-3.9 -1.1,-1.1 -2.2,-2.2 -3,-3.2 -0.4,-0.5 -0.9,-0.9 -1.4,-1.2 0,0 0,0 0,0 -0.5,-0.7 -1,-1.3 -1.6,-1.7 -0.1,-0.1 -0.3,-0.3 -0.5,-0.5 -0.5,-0.8 -1.3,-1.4 -2.2,-1.7 0,-0.1 -0.1,-0.2 -0.2,-0.3 -0.8,-1.5 -2.1,-2.5 -3.2,-3.4 -0.2,-0.2 -0.7,-0.6 -0.9,-0.8 -0.6,-1 -1.5,-1.7 -2.5,-2 l -0.4,-0.4 c -0.4,-0.5 -0.8,-0.9 -1.1,-1.3 -0.4,-0.4 -0.8,-0.8 -1.3,-1 0,0 0,0 0,0 -0.8,-0.4 -1.5,-0.6 -2,-0.7 -0.5,-0.2 -1.1,-0.4 -1.7,-0.4 -2.4,-0.1 -4.7,0.8 -6.4,2.6 -1.3,1.3 -2.1,3 -2.3,4.8 -0.7,2.4 0.2,5.4 2.1,7.3 l 0.8,0.8 c 0.5,0.5 0.9,0.9 1.3,1.4 0.3,0.4 0.8,0.7 1.2,1 0.1,0.1 0.3,0.3 0.4,0.4 0.3,0.3 0.7,0.8 1.3,1.2 0.2,0.2 0.4,0.4 0.7,0.6 0,0 0.1,0.1 0.1,0.1 0.5,0.8 1.1,1.4 1.6,1.9 l 0.3,0.3 c 0.4,0.6 0.9,1.1 1.5,1.4 0.2,0.2 0.5,0.4 0.8,0.5 l 0.2,0.1 c 0.2,0.2 0.4,0.4 0.6,0.5 0.1,0.2 0.2,0.3 0.3,0.5 0.9,1.2 1.9,2.1 2.7,2.8 v 0 c 0.1,0.1 0.1,0.2 0.2,0.2 0.2,0.5 0.5,1 0.9,1.4 0,0 0.1,0.1 0.1,0.1 0.9,0.8 1.7,1.5 2.5,2 1.8,2 4.4,4.4 5.9,5.7 0.3,0.4 0.6,0.7 1,0.9 0.3,0.2 0.5,0.4 0.8,0.6 l 0.1,0.1 c 0.2,0.2 0.3,0.4 0.5,0.5 0.2,0.4 0.6,0.8 1.1,1.4 0.3,0.3 0.6,0.6 1,0.9 0.8,0.9 1.7,1.7 2.6,2.5 0.4,0.3 0.8,0.7 1.2,1.1 0.2,0.6 0.6,1.1 1.1,1.5 l 0.4,0.4 c 1.1,1 2.2,1.9 3.3,2.8 0.1,0.2 0.2,0.3 0.4,0.5 0,0.1 0.1,0.1 0.2,0.2 1.3,1.3 2.4,2.2 3.2,2.8 0.3,0.2 0.6,0.4 1,0.5 0,0 0,0 0.1,0.1 0.5,0.5 0.8,0.8 1.1,1 0.5,1.1 1.4,2.1 2.5,3.2 -6.1,7.7 -10.5,16.9 -12.6,26.1 -0.3,0.3 -0.5,0.7 -0.7,1.1 -0.3,0.7 -0.4,1.5 -0.3,2.3 l -0.4,2 c 0,0.1 0,0.2 0,0.2 -0.1,0.6 -0.2,1.3 -0.2,2.1 0,0 0,0 0,0.1 -0.2,0 -0.4,0 -0.6,0 -0.3,-0.1 -0.5,-0.1 -0.8,-0.1 -0.3,0 -0.5,0 -0.8,-0.1 -0.6,-0.1 -1.4,-0.2 -2.2,-0.1 -0.4,0 -0.8,0.1 -1.2,0.2 -0.2,0 -0.3,0 -0.5,0 -0.4,0 -0.8,0 -1.2,0.1 -0.3,-0.1 -0.6,-0.1 -0.9,-0.2 -0.6,-0.1 -1.5,-0.1 -2.4,0.1 -0.1,0 -0.1,0 -0.1,0 -0.3,-0.1 -0.5,-0.1 -0.8,-0.1 -0.7,0 -1.2,0.1 -1.7,0.2 -0.2,0 -0.4,0 -0.6,0 -0.1,0 -0.3,0 -0.5,0 -0.7,-0.2 -1.5,-0.3 -2.3,-0.1 -0.2,0 -0.3,0 -0.6,0.1 -0.6,0 -1.2,0.1 -1.6,0.2 -0.1,0 -0.2,0 -0.3,0.1 -0.7,-0.1 -1.4,-0.1 -1.9,0 -1.1,-0.5 -2.2,-0.5 -2.9,-0.6 -0.3,0 -0.6,0 -0.9,0.1 l -0.9,0.2 c -0.3,-0.1 -0.6,-0.1 -0.9,-0.1 -2.1,-0.1 -3.4,0.2 -4.3,0.4 -0.7,-0.2 -1.3,-0.3 -1.8,-0.3 H 302 c -0.5,-0.1 -1.1,0 -1.6,0.1 -1.6,-0.2 -3.4,-0.2 -5.3,-0.3 -1.6,0 -3.2,0 -4.4,-0.2 -0.6,-0.1 -1.3,0 -1.9,0.2 0,0 0,0 0,0 -0.8,-0.2 -1.6,-0.1 -2.3,-0.1 -0.2,0 -0.4,0.1 -0.7,0 -0.9,-0.2 -1.9,-0.1 -2.8,0.4 -0.1,0 -0.2,-0.1 -0.3,-0.1 -1.6,-0.5 -3.3,-0.3 -4.7,-0.2 -0.3,0 -0.9,0.1 -1.2,0.1 -1.1,-0.3 -2.2,-0.1 -3.2,0.4 l -0.6,-0.1 c -0.6,-0.1 -1.2,-0.1 -1.7,-0.1 -0.6,0 -1.1,0 -1.7,0.2 -0.8,0.3 -1.4,0.6 -1.9,0.9 -0.5,0.2 -1,0.5 -1.5,0.9 -1.8,1.6 -2.7,3.9 -2.7,6.4 0.1,1.8 0.7,3.6 1.7,5 1.2,2.2 4,3.7 6.6,3.7 0,0 0,0 0,0 h 1.1 c 0.7,0 1.3,0 1.9,0.1 0.5,0 1.1,0 1.6,-0.1 0.1,0 0.4,0 0.5,0 0.5,0 1.1,0 1.8,-0.1 0.3,0 0.6,0 1,-0.1 0,0 0.1,0 0.1,0 0.9,0.2 1.7,0.2 2.5,0.2 h 0.3 c 0.7,0.1 1.4,0.1 2.1,-0.1 0.3,0 0.6,-0.1 0.9,-0.2 h 0.2 c 0.3,0 0.5,0 0.8,-0.1 0.2,0.1 0.3,0.1 0.5,0.1 1.5,0.3 2.8,0.2 3.9,0.1 v 0 c 0.1,0 0.2,0 0.3,0 0.5,0.2 1.1,0.4 1.6,0.4 0,0 1.8,0.1 3.4,-0.4 2.5,0.1 5.9,0 8.2,-0.1 0.4,0.1 0.9,0 1.4,0 0.3,0 0.7,-0.1 1,-0.1 0,0 0.1,0 0.1,0 0.3,0 0.5,0 0.8,0 0.5,0.1 1,0.2 1.8,0.2 0.4,0 0.9,0 1.3,-0.1 1.2,0 2.4,0 3.5,-0.1 0.5,0 1.1,-0.1 1.6,-0.1 0.6,0.2 1.2,0.3 1.9,0.3 h 0.5 c 1.5,-0.1 2.9,-0.2 4.3,-0.3 0.3,0.1 0.6,0.1 0.9,0.1 1.8,0 3.3,-0.1 4.3,-0.3 0.4,-0.1 0.7,-0.2 1,-0.3 0,0 0.1,0 0.1,0 0.7,0 1.1,0 1.5,-0.1 1,0.4 2.3,0.4 3.9,0.5 0,0 0,0 0,0 0.1,1.9 0.6,3.7 1,5.1 0.4,1.4 0.5,1.8 0.5,1.9 0,0.4 0.1,0.8 0.2,1.2 0.4,1.2 0.8,2.6 1.2,3.7 0.1,0.3 0.2,0.5 0.3,0.8 0,0.4 0.1,0.7 0.2,1.1 2.3,6.7 6,13.5 10.4,19.2 0.2,0.2 0.3,0.5 0.5,0.7 -0.2,0.2 -0.4,0.5 -0.7,0.7 -0.2,0.1 -0.4,0.3 -0.6,0.5 -0.2,0.2 -0.4,0.3 -0.6,0.5 -0.6,0.4 -1.2,0.9 -1.7,1.5 -0.3,0.3 -0.5,0.6 -0.7,1 -0.1,0.1 -0.2,0.2 -0.3,0.3 -0.3,0.3 -0.6,0.6 -0.8,0.9 -0.3,0.1 -0.5,0.3 -0.7,0.5 -0.5,0.4 -1.2,1 -1.7,1.8 0,0 -0.1,0 -0.1,0.1 -0.2,0.2 -0.5,0.3 -0.6,0.5 -0.5,0.5 -0.8,1 -1,1.4 -0.1,0.1 -0.3,0.3 -0.5,0.4 -0.1,0.1 -0.2,0.2 -0.3,0.3 -0.7,0.3 -1.3,0.9 -1.7,1.5 -0.1,0.1 -0.2,0.3 -0.4,0.5 -0.4,0.5 -0.8,0.9 -1,1.3 -0.1,0.1 -0.1,0.2 -0.1,0.3 -0.6,0.4 -1,0.9 -1.3,1.3 -1.1,0.4 -1.9,1.2 -2.5,1.7 -0.2,0.2 -0.4,0.5 -0.6,0.7 l -0.5,0.7 c -0.2,0.1 -0.5,0.3 -0.7,0.5 -1.6,1.4 -2.3,2.5 -2.7,3.3 -0.6,0.3 -1.1,0.7 -1.5,1.1 l -0.2,0.2 c -0.4,0.3 -0.8,0.8 -1,1.2 -1.3,1 -2.6,2.2 -3.9,3.6 -1.1,1.1 -2.2,2.2 -3.2,3 -0.5,0.4 -0.9,0.9 -1.2,1.4 0,0 0,0 0,0 -0.7,0.5 -1.3,1.1 -1.7,1.6 -0.1,0.1 -0.3,0.3 -0.4,0.5 -0.8,0.5 -1.4,1.3 -1.7,2.2 -0.1,0 -0.2,0.1 -0.3,0.2 -1.5,0.8 -2.6,2.1 -3.4,3.2 -0.2,0.2 -0.6,0.7 -0.8,0.9 -1,0.6 -1.7,1.5 -2,2.5 l -0.4,0.4 c -0.5,0.4 -0.9,0.8 -1.3,1.1 -0.4,0.4 -0.8,0.8 -1,1.3 0,0 0,0 0,0 -0.4,0.8 -0.6,1.4 -0.7,2 -0.2,0.5 -0.4,1.1 -0.4,1.6 -0.1,2.3 0.8,4.6 2.5,6.3 0,0 0.1,0.1 0.1,0.1 1.3,1.3 3,2.1 4.8,2.3 2.4,0.7 5.4,-0.2 7.3,-2 l 0.8,-0.8 c 0.5,-0.5 0.9,-0.9 1.4,-1.2 0.4,-0.3 0.8,-0.8 1,-1.2 0.1,-0.1 0.3,-0.3 0.4,-0.4 0.3,-0.3 0.8,-0.7 1.2,-1.3 0.2,-0.2 0.4,-0.5 0.6,-0.7 0,0 0.1,-0.1 0.1,-0.1 0.8,-0.5 1.4,-1.1 2.1,-1.8 0,0 0.1,-0.1 0.1,-0.1 0.6,-0.4 1.1,-0.9 1.4,-1.5 0.2,-0.3 0.4,-0.5 0.5,-0.8 l 0.1,-0.2 c 0.2,-0.2 0.4,-0.4 0.5,-0.6 0.2,-0.1 0.3,-0.2 0.5,-0.3 1.2,-0.9 2.1,-1.9 2.8,-2.7 v 0 c 0.1,-0.1 0.2,-0.1 0.2,-0.2 0.5,-0.2 1,-0.5 1.3,-0.8 0,0 1.3,-1.2 2.2,-2.7 1.9,-1.7 4.2,-4.1 5.8,-5.9 0.3,-0.3 0.7,-0.6 0.9,-1 0.2,-0.3 0.4,-0.5 0.7,-0.9 0.2,-0.2 0.4,-0.3 0.6,-0.5 0.4,-0.2 0.8,-0.6 1.5,-1.2 0.3,-0.3 0.6,-0.6 0.8,-1 0.9,-0.8 1.7,-1.7 2.5,-2.6 0.3,-0.4 0.7,-0.7 1,-1.1 0.6,-0.3 1.1,-0.6 1.5,-1.1 l 0.3,-0.4 c 0.9,-1.1 1.9,-2.1 2.8,-3.3 0.2,-0.2 0.5,-0.3 0.7,-0.5 2.5,-2.5 3.2,-3.6 3.5,-4.3 0,0 0,0 0,0 0.4,-0.4 0.7,-0.7 0.9,-1 1.1,-0.5 2.1,-1.4 3.3,-2.6 1.5,1.2 3.1,2.4 4.7,3.4 9,5.9 19.4,9.6 30.4,10.7 -0.1,2 0,3.7 0.1,5.4 l 0.1,0.8 c 0.1,0.7 0.2,1.4 0.2,2 0,0.5 -0.1,0.9 -0.1,1.4 l -0.1,0.6 c -0.3,2.5 -0.3,5 -0.3,7.4 l 0.2,23.2 c 0,0.3 0,0.5 0.1,0.8 l 0.1,0.4 c 0.5,2.2 0.2,4.7 -0.1,7.3 -0.3,2.3 -0.6,4.7 -0.4,7.2 0.1,0.7 0.2,1.5 0.3,2.2 0.1,0.7 0.2,1.4 0.2,2.2 0,0.7 0,1.4 0,2.1 v 0.9 c -0.1,2.3 0.1,4.6 0.2,6.9 0,0.4 0.1,0.7 0.2,1 0.2,0.4 0.3,0.8 0.5,1.1 0.2,0.3 0.4,0.6 0.7,0.8 1,0.8 2.1,1.4 3.3,1.7 0.3,0.1 0.7,0.1 1,0.1 0.2,0 0.3,0 0.4,0 1.3,-0.1 2.7,-0.2 4.2,-0.8 1.8,-0.7 3.2,-2 3.9,-3.7 0.2,-0.4 0.4,-0.9 0.4,-1.4 0,-19.4 0,-21.7 -0.1,-22.3 0,-0.4 -0.1,-0.7 -0.2,-1 0.7,-1.2 0.8,-2.6 0.3,-3.9 0,-0.3 0,-0.8 0,-1.7 0,-0.1 0,-0.2 0,-0.3 0,-0.1 0.1,-0.3 0.1,-0.5 0,-0.3 0.1,-0.7 0.1,-1.2 0.1,-0.4 0.2,-0.8 0.3,-1.2 0,-0.2 0.1,-0.5 0.1,-0.8 0,-0.6 0,-1.3 -0.1,-2.1 v -0.4 c -0.1,-1.6 -0.2,-4.1 0,-5.4 0,-0.3 0.1,-0.6 0.1,-0.8 -0.1,-1.8 -0.2,-3.7 -0.4,-5.3 0,-0.1 0,-0.1 0.1,-0.2 0.6,-0.9 0.8,-2 0.5,-3.1 v -0.4 c 0,-0.6 0,-1.4 -0.2,-2.1 0,-1.5 0,-2.8 0,-4.1 0.6,-0.8 0.9,-1.7 0.9,-2.9 0.2,-0.5 0.2,-1 0.2,-1.5 0,-0.9 -0.1,-1.5 -0.1,-2.3 -0.1,-0.7 -0.1,-1.5 -0.2,-2.7 0,-0.4 -0.1,-0.7 -0.2,-1.1 0.1,-0.2 0.2,-0.4 0.2,-0.6 l 0.4,-1.2 c 0.1,-0.3 0.2,-0.7 0.2,-1 0.7,-0.1 1.3,-0.2 1.9,-0.4 2.2,-0.4 4.2,-0.8 6.2,-1.4 0.6,0 1.2,-0.2 1.5,-0.3 1,-0.3 2,-0.7 2.9,-1.1 7.5,-2.6 14.4,-6.3 20.6,-11.2 l 18.6,18.6 c 3.1,3.3 5.9,6.1 8.2,8.3 l 3,3.1 c 0.2,0.4 0.6,0.8 1,1.2 0.5,0.4 1,0.9 1.4,1.2 3.5,3.6 7.6,7.7 11.9,11.6 l 0.3,0.3 c 2.9,2.9 7.3,2.9 10.3,-0.1 3,-3 3,-7.4 0.1,-10.3 l -3.5,-3.5 c -0.1,-0.2 -0.2,-0.3 -0.4,-0.5 -0.3,-0.6 -0.7,-1.1 -1.2,-1.6 -0.2,-0.3 -0.4,-0.6 -0.7,-0.9 -0.7,-0.6 -1.3,-1.3 -1.8,-1.8 -0.8,-0.8 -1.8,-1.9 -3.1,-3 -0.3,-0.2 -0.6,-0.4 -0.9,-0.6 -0.3,-1.3 -1.3,-2.4 -2.6,-3 -0.2,-0.2 -0.6,-0.5 -1.2,-1.2 l -0.2,-0.2 c -0.1,-0.1 -0.2,-0.3 -0.3,-0.4 -0.2,-0.3 -0.5,-0.6 -0.8,-0.9 -0.2,-0.5 -0.5,-1 -0.8,-1.3 -0.1,-0.1 -0.2,-0.2 -0.3,-0.4 -0.5,-0.5 -1.1,-1.1 -1.8,-1.7 -1.3,-1.2 -3,-2.8 -3.8,-3.8 -0.2,-0.2 -0.3,-0.4 -0.5,-0.6 -1.3,-1.2 -2.8,-2.5 -4,-3.5 0,-0.1 -0.1,-0.1 -0.1,-0.2 -0.3,-1 -0.9,-1.9 -1.8,-2.5 l -0.3,-0.2 c -0.5,-0.4 -1,-1 -1.7,-1.4 -1,-1 -2,-2 -2.9,-3 -0.1,-0.9 -0.6,-1.8 -1.4,-2.7 -0.2,-0.4 -0.5,-0.9 -1,-1.3 -0.6,-0.5 -1,-0.9 -1.6,-1.4 -0.5,-0.4 -1.1,-0.9 -2,-1.8 -0.3,-0.2 -0.5,-0.5 -0.9,-0.6 -0.1,-0.2 -0.1,-0.4 -0.2,-0.6 l -0.3,-0.6 c 1.3,-1.6 2.1,-3.1 2.9,-4.4 0.2,-0.3 0.4,-0.7 0.6,-1 1.6,-2 3.9,-6.6 4.5,-7.9 0.2,-0.3 0.3,-0.7 0.4,-1 0.1,-0.3 0.4,-1.2 0.6,-1.7 0.4,-0.9 0.7,-1.7 0.9,-2.5 0.1,-0.2 0.2,-0.5 0.3,-0.7 0.1,-0.5 0.2,-0.9 0.2,-1.4 0.6,-1 1,-2.3 1.5,-4 l 0.2,-0.7 c 0.3,-0.6 0.4,-1.3 0.3,-1.9 0.1,-0.4 0.1,-0.9 0.1,-1.4 l 0.1,-0.9 c 0.1,-0.9 0.2,-1.5 0.2,-2 0.1,-0.3 0.2,-0.5 0.3,-0.8 0.2,-0.8 0.4,-1.7 0.5,-2.5 h 25.1 c 4.5,0.2 8.5,0.2 11.7,0.1 l 4.3,0.1 c 0.5,0.1 1,0.2 1.5,0.1 0.6,0 1.3,-0.1 1.8,-0.1 3.9,0 7.6,0 11.2,0 l 2.8,-0.1 c 0.9,0 1.8,0 2.6,-0.1 h 0.4 c 2.6,0 5,-1.3 6.2,-3.5 2,-1.5 2,-4.5 0.7,-6.8 z M 395.9,338.7 c 0,0.4 0.1,0.8 0.1,1.2 -0.2,0.4 -0.3,0.9 -0.3,1.3 0,0.3 0,0.5 0,0.8 0.1,1.4 0.1,2.9 0.1,4.4 0,0.6 0,1.1 0,1.7 -0.1,0.4 -0.1,0.7 -0.1,1.1 0,0.6 0.1,1.3 0.1,2.1 v 0.2 c 0,1.2 0,2.6 0.1,3.8 0,0.2 0,0.3 -0.1,0.5 -0.1,0.7 -0.1,1.5 0.1,2.3 0,0.3 0,0.7 0,1.1 0,0.4 0,0.9 0,1.6 0,0.2 0,0.4 0,0.5 -0.1,-0.1 -0.3,-0.2 -0.4,-0.3 -0.1,-0.1 -0.1,-0.2 -0.2,-0.2 -1,-1.3 -2.3,-2.3 -3.4,-3.2 0,-0.1 -0.1,-0.1 -0.1,-0.2 -0.6,-0.8 -1.2,-1.5 -1.9,-1.9 -0.4,-0.6 -1,-1.1 -1.6,-1.4 -0.3,-0.7 -0.8,-1.3 -1.4,-1.8 -0.1,-0.1 -0.3,-0.2 -0.5,-0.4 -1.3,-1.4 -3.3,-3.4 -4.6,-4.6 -0.2,-0.1 -0.3,-0.3 -0.5,-0.4 -1.3,-1.6 -3,-3.2 -4.6,-4.7 -1,-0.9 -1.9,-1.9 -2.9,-2.9 1.7,-1.2 3.5,-2.3 5.5,-3.5 3.4,-1.9 6.4,-3.3 8.5,-4.2 0.8,-0.1 1.6,-0.3 2.4,-0.5 0.7,-0.1 1.5,-0.3 2.4,-0.4 l 1.5,-0.2 c 0,0 0.1,0 0.1,0 0.4,-0.1 0.8,-0.2 1.1,-0.3 h 0.4 c 0,0.1 0,0.3 0,0.4 0.1,0.9 0,3.7 -0.1,5.1 v 1.1 c -0.2,0.6 0,1.3 0.3,1.9 z m -0.2,64.7 v 0.1 c 0,0.6 0,1.3 0,2.1 0,0.3 0,0.6 0,0.9 0,0.2 0,0.4 0,0.6 0,0.5 -0.1,1.3 0,2.4 0,0.2 0,0.3 0.1,0.5 0,0.1 0,0.1 0,0.2 -0.1,0.6 -0.2,1.3 -0.1,2.2 -0.2,0.7 -0.2,1.5 0,2.2 v 0.1 c 0,0.5 -0.1,1.1 0,1.9 -0.1,1.3 0.1,2.5 0.2,3.5 0,0.2 0.1,0.5 0.1,0.7 -0.1,0.3 -0.1,0.7 -0.1,1 0,0.9 0.1,1.9 0.2,2.8 -0.1,0.4 -0.1,0.8 -0.1,1.1 0.1,2.1 0.1,4.2 0.1,6.4 v 0 c 0,0.6 0,1.2 0,1.8 -1.5,-0.1 -3,-0.3 -4.3,-0.5 -0.3,-0.2 -0.6,-0.4 -0.9,-0.5 -0.7,-0.6 -1.5,-0.9 -2.3,-1 -0.1,0 -0.3,-0.1 -0.5,-0.1 l -0.3,-0.1 c -0.9,-0.3 -1.7,-0.5 -2.6,-0.6 -1.8,-0.7 -3.8,-1.6 -6.1,-2.8 -0.6,-1.3 -1.7,-2 -2.4,-2.4 0,0 0,0 0,0 -0.3,-0.4 -0.7,-0.8 -1.2,-1 -0.8,-0.5 -1.4,-0.9 -2.1,-1.3 h -0.1 c -0.1,-0.1 -0.2,-0.2 -0.3,-0.2 0,0 0,0 0.1,-0.1 0.5,-0.7 2.5,-2.5 3.6,-3.5 l 0.8,-0.8 c 0.5,-0.5 0.9,-1.1 1.1,-1.7 0.3,-0.3 0.5,-0.6 0.7,-0.9 0.4,-0.2 0.8,-0.4 1.2,-0.7 0.2,-0.2 0.4,-0.3 0.6,-0.6 0.9,-1.1 2,-2.1 3,-3.2 0.4,-0.4 0.8,-0.8 1.2,-1.2 0.3,-0.2 0.6,-0.5 0.8,-0.7 0.4,-0.5 1,-1.1 1.7,-1.8 0.8,-0.9 1.7,-1.8 2.6,-2.8 0.1,-0.1 0.3,-0.2 0.4,-0.3 0.5,-0.5 1.1,-1 1.5,-1.7 0.3,-0.2 0.5,-0.5 0.7,-0.8 0.2,-0.3 0.6,-0.6 1.1,-1.1 0.4,-0.3 0.7,-0.7 1.1,-1 0.3,-0.2 0.6,-0.4 0.8,-0.7 0.1,-0.1 0.2,-0.2 0.2,-0.3 0,0.1 0,0.3 0,0.4 -0.1,0.2 -0.2,0.4 -0.2,0.6 -0.6,1 -0.6,2 -0.3,2.9 z m -0.5,-38.2 0.7,-0.6 c 0,0 0,0 0,0 z m -26.5,-7.9 c 0.2,0.4 0.4,0.8 0.7,1.1 0.2,0.2 0.4,0.5 0.6,0.6 1.1,1 2.2,2.1 3.2,3 l 1.2,1.2 c 0.2,0.3 0.5,0.6 0.7,0.8 0.5,0.4 1.1,1 1.7,1.6 0.9,0.9 1.9,1.8 2.8,2.6 0.1,0.1 0.2,0.3 0.3,0.4 0.5,0.6 1,1.1 1.7,1.5 0.2,0.3 0.5,0.5 0.7,0.7 0.3,0.2 0.6,0.6 1.1,1.1 0.1,0.1 0.3,0.3 0.4,0.4 -0.2,0 -0.4,0 -0.5,0.1 -0.1,0 -0.2,0 -0.3,-0.1 -1.6,-0.2 -3.3,0 -4.7,0.1 -0.1,0 -0.2,0 -0.2,0 -1,-0.2 -1.9,-0.2 -2.7,0 -0.7,-0.1 -1.4,-0.1 -2.1,0.2 -0.5,-0.2 -1,-0.3 -1.6,-0.3 -0.2,0 -0.4,0 -0.6,0 -0.2,0 -0.4,0.1 -0.6,0.1 -1.9,-0.1 -4.7,-0.1 -6.5,0 -0.2,0 -0.4,0 -0.6,0.1 -2,-0.2 -4.2,-0.2 -6.6,-0.1 -1.4,0 -2.7,0.1 -4.1,0 0,-0.3 -0.1,-0.7 -0.2,-1 0,-0.4 0.1,-0.7 0.1,-0.9 l 0.7,-1.7 c 0.2,-0.4 0.3,-0.8 0.3,-1.2 0.3,-0.7 0.4,-1.4 0.5,-2.1 0.5,-0.6 0.8,-1.2 1,-1.6 0.2,-0.4 0.3,-0.9 0.4,-1.3 0.4,-0.6 0.7,-1.2 0.8,-1.9 0.1,-0.2 0.2,-0.4 0.4,-0.7 0.4,-0.8 1,-1.8 1.2,-3.2 0.1,-0.2 0.2,-0.3 0.3,-0.4 0.1,-0.1 0.1,-0.2 0.2,-0.4 0.3,-0.6 0.7,-1.4 0.8,-2.1 0.2,-0.2 0.3,-0.3 0.5,-0.5 0.9,-1.3 1.4,-2.2 1.7,-3.1 0.2,0.2 0.3,0.4 0.5,0.5 0.7,0.5 2.6,2.6 3.5,3.6 l 0.6,0.7 c 0.5,0.6 1.1,1 1.8,1.2 0.3,0.6 0.6,0.8 0.9,1 z m -13.9,43.4 c 0,0 0,0 0,0 -0.1,-0.2 -0.2,-0.3 -0.3,-0.5 0,-0.3 0,-0.7 -0.1,-1 l -0.5,-2.6 v -0.1 c -0.1,-0.7 -0.2,-1.3 -0.2,-1.7 0,-0.4 -0.1,-0.8 -0.2,-1.1 -0.1,-0.3 -0.2,-0.7 -0.5,-1.1 0,-0.4 -0.1,-0.9 -0.2,-1.4 -0.1,-0.4 -0.2,-0.9 -0.4,-1.2 0,-0.1 0,-0.3 0.1,-0.5 1,-0.1 3.5,0 4.9,0.1 h 1.1 c 0.7,0 1.4,-0.1 2,-0.4 0.4,0 0.8,-0.1 1.2,-0.1 0.4,0.2 0.9,0.3 1.3,0.3 0.3,0 0.5,0 0.8,0 1.4,-0.1 2.9,-0.1 4.4,-0.1 0.6,0 1.1,0 1.7,0 0.4,0.1 0.7,0.1 1.1,0.1 0.7,0 1.5,-0.1 2.4,-0.1 1.2,0 2.6,0 3.8,-0.1 0.2,0 0.3,0 0.5,0.1 0.7,0 1.5,0.1 2.2,-0.1 0.3,0 0.7,0 1.1,0 0.4,0 0.9,0 1.4,0 0.2,0 0.4,0 0.7,0 -0.1,0.1 -0.2,0.3 -0.3,0.4 -0.1,0.1 -0.2,0.1 -0.2,0.2 -1.3,1 -2.3,2.3 -3.2,3.4 -0.1,0 -0.2,0.1 -0.2,0.1 -0.8,0.6 -1.5,1.2 -1.9,1.9 -0.6,0.4 -1,1 -1.4,1.6 -0.7,0.3 -1.3,0.8 -1.7,1.4 -0.1,0.1 -0.2,0.3 -0.4,0.5 -1.4,1.3 -3.4,3.3 -4.6,4.6 -0.1,0.2 -0.3,0.3 -0.4,0.5 -1.6,1.3 -3.1,2.9 -4.8,4.6 -0.9,0.9 -1.7,1.8 -2.7,2.7 -0.1,-0.1 -0.1,-0.3 -0.2,-0.4 -0.8,-1.6 -1.4,-2.4 -2.3,-3.2 0,0 -0.1,-0.1 -0.2,-0.2 -0.3,-0.4 -0.7,-0.8 -1.1,-1.1 -0.2,-1.1 -0.5,-2.2 -1.2,-3.7 -0.4,-0.7 -0.9,-1.3 -1.5,-1.8 z m 100.8,22 z m -2.5,-24.3 c 0,0 0,0.1 0,0.1 -0.8,1.7 -1.7,3.7 -2.3,5.2 l -1.9,3.6 c -0.4,0.8 -1,1.6 -1.6,2.4 l -0.4,0.5 c -0.3,0.4 -0.5,0.8 -0.6,1.3 -0.2,-0.1 -0.4,-0.2 -0.6,-0.2 0,-0.1 -0.1,-0.1 -0.1,-0.2 -0.3,-0.5 -0.8,-1.1 -1.2,-1.8 l -0.1,-0.2 c -0.2,-0.3 -0.4,-0.6 -0.6,-0.8 -0.2,-0.4 -0.5,-0.7 -0.7,-0.9 -0.1,-0.1 -0.3,-0.3 -0.4,-0.4 -0.1,-0.1 -0.4,-0.3 -0.7,-0.5 -0.3,-0.3 -0.5,-0.6 -0.7,-0.8 -0.2,-0.2 -0.4,-0.4 -0.6,-0.5 -0.3,-0.5 -0.6,-0.9 -1,-1.2 -0.3,-0.4 -0.7,-0.8 -1.2,-1.2 -0.3,-0.3 -0.7,-0.5 -1.1,-0.6 -0.5,-1.1 -1.3,-1.8 -1.8,-2.3 0,0 -0.1,-0.1 -0.1,-0.1 -0.3,-0.4 -0.7,-0.7 -1.2,-1 -0.3,-0.4 -0.6,-0.8 -1.1,-1.2 -0.2,-0.2 -0.5,-0.3 -0.8,-0.5 -0.1,-0.1 -0.2,-0.1 -0.3,-0.2 -0.5,-0.9 -1.4,-1.6 -2.4,-1.9 0,0 0,0 -0.1,-0.1 -0.1,-0.2 -0.2,-0.3 -0.3,-0.5 l -0.1,-0.2 c -0.3,-0.6 -0.8,-1.1 -1.3,-1.4 -0.3,-0.3 -0.5,-0.5 -0.8,-0.7 -0.2,-0.5 -0.5,-0.9 -0.9,-1.4 -0.3,-0.3 -0.5,-0.6 -0.9,-0.8 -0.2,-0.3 -0.4,-0.5 -0.6,-0.7 0.1,0 0.3,-0.1 0.4,-0.1 h 0.1 c 0.6,0 1.3,0 2.1,0 0.3,0 0.6,0 0.9,0 0.2,0 0.4,0 0.7,0 0.6,0 1.3,0.1 2.4,0 0.2,0 0.3,0 0.5,-0.1 0.1,0 0.1,0 0.2,0 0.6,0.1 1.3,0.2 2.2,0.1 0.7,0.2 1.5,0.2 2.2,0 h 0.1 c 0.5,0 1.1,0.1 1.9,0 1.3,0.1 2.6,-0.1 3.5,-0.2 0.2,0 0.4,0 0.6,-0.1 0.3,0.1 0.7,0.1 1.1,0.1 0.9,0 1.9,-0.1 2.8,-0.2 0.4,0.1 0.7,0.1 1.1,0.1 2.1,-0.1 4.2,-0.1 6.3,-0.1 0.4,0 0.7,0 1.1,0 -0.1,0.9 -0.2,1.7 -0.3,2.4 -0.1,0.8 -0.1,1.4 -0.1,1.9 v 0.4 c 0,0.1 0,0.3 0,0.4 -0.4,0.6 -0.7,1.3 -0.9,1.9 l -0.2,0.6 c -0.1,1 -0.2,1.5 -0.2,2.1 z m -43.6,22.4 0.1,-0.1 v 0 z m -0.1,-15.2 v 0 l 0.2,-0.1 v 0 z m 3.1,-56.4 c 0,-0.2 -0.1,-0.4 -0.1,-0.7 0.1,-1.9 0.1,-4.7 0,-6.5 0,-0.2 0,-0.4 -0.1,-0.6 0.2,-2 0.2,-4.2 0.1,-6.7 0,-1.3 -0.1,-2.7 0,-4.2 0,-0.1 0,-0.1 0,-0.2 0.3,0.1 0.7,0.1 1,0.2 l 1.3,0.3 c 0.7,0.2 1.5,0.4 2.2,0.6 1.1,0.3 2.1,0.5 2.9,0.8 0.3,0.1 0.7,0.2 1,0.2 0.4,0.2 0.8,0.4 1.2,0.6 l 0.5,0.2 c 3.3,1.5 7.4,3.3 10.8,5.7 0,0.1 -0.1,0.3 -0.1,0.4 -0.1,0 -0.1,0.1 -0.2,0.1 -0.5,0.3 -1.2,0.8 -1.9,1.3 -0.4,0.3 -0.7,0.5 -0.8,0.6 -0.5,0.3 -0.9,0.6 -1.3,1.1 -0.1,0.2 -0.3,0.4 -0.5,0.7 -0.4,0.3 -0.7,0.6 -0.9,0.8 -0.2,0.2 -0.3,0.3 -0.4,0.5 -0.5,0.3 -0.9,0.6 -1.3,1 -0.4,0.3 -0.8,0.7 -1.2,1.2 -0.3,0.3 -0.5,0.7 -0.6,1.1 -1.1,0.5 -1.9,1.4 -2.3,1.9 0,0 0,0 0,0 -0.4,0.3 -0.7,0.7 -1,1.1 -0.4,0.3 -0.8,0.6 -1.2,1.1 -0.2,0.2 -0.3,0.5 -0.5,0.8 -0.1,0.1 -0.1,0.2 -0.2,0.3 -0.9,0.6 -1.6,1.4 -1.9,2.4 0,0 0,0 -0.1,0.1 -0.2,0.1 -0.3,0.2 -0.5,0.3 l -0.2,0.1 c -0.6,0.3 -1.1,0.8 -1.5,1.4 -0.3,0.3 -0.5,0.5 -0.7,0.8 -0.5,0.2 -0.9,0.5 -1.3,0.8 0,0 -0.1,0.1 -0.1,0.1 0,-0.9 -0.1,-1.7 -0.2,-2.4 0,-0.1 0,-0.2 0.1,-0.3 0.2,-1 0.2,-1.9 0,-2.7 0.1,-0.7 0.1,-1.4 -0.2,-2.1 0.2,-0.7 0.3,-1.5 0.2,-2.2 z m 40.2,14.6 c 0,0.1 0.1,0.2 0.1,0.3 0,0.2 0,0.5 0.1,0.7 0.2,0.9 0.4,1.8 0.9,2.7 0.1,0.3 0.1,0.6 0.2,0.8 0,0 0,0.1 0,0.1 0,0.1 0,0.3 0,0.4 0.1,0.8 0.4,1.3 0.6,1.7 0,0.1 0,0.2 0.1,0.4 0.1,0.7 0.2,1.1 0.3,1.5 -0.2,0.1 -0.5,0.2 -0.7,0.3 -0.1,0 -0.1,0 -0.2,0 -0.6,-0.1 -1.3,-0.3 -2.1,-0.4 h -0.2 c -0.4,-0.1 -0.8,-0.1 -1,-0.2 -0.4,-0.1 -0.8,-0.2 -1.2,-0.2 -0.2,0 -0.3,0 -0.5,0 -0.2,0 -0.5,0.1 -0.8,0.1 -0.4,0 -0.8,-0.1 -1.1,-0.1 -0.3,0 -0.5,0 -0.8,0.1 -0.5,-0.2 -1.1,-0.2 -1.6,-0.2 -0.5,-0.1 -1,-0.1 -1.7,0 -0.4,0 -0.9,0.2 -1.2,0.3 -1.2,-0.4 -2.3,-0.4 -2.9,-0.3 0,0 0,0 -0.1,0 -0.5,0 -1,0 -1.5,0.1 0,0 0,0 0,0 -0.5,-0.1 -1.1,-0.1 -1.6,-0.1 -0.3,0 -0.6,0.1 -0.9,0.2 -0.1,0 -0.2,0.1 -0.3,0.1 -1,-0.3 -2.1,-0.1 -3,0.3 0,0 -0.1,0 -0.1,0 -0.2,0 -0.3,-0.1 -0.4,-0.1 0,0 -0.3,-0.1 -0.3,-0.1 -0.7,-0.2 -1.3,-0.2 -2,-0.1 -0.4,0 -0.8,0 -1.1,0 -0.5,-0.2 -1,-0.3 -1.5,-0.3 -0.4,0 -0.8,0 -1.2,0 -0.3,-0.1 -0.7,-0.1 -0.9,-0.1 0.1,-0.1 0.1,-0.2 0.2,-0.4 v 0 c 0.4,-0.4 0.9,-0.9 1.5,-1.5 0.2,-0.2 0.4,-0.4 0.6,-0.6 0.1,-0.2 0.3,-0.3 0.5,-0.4 0.4,-0.4 1,-0.9 1.7,-1.7 0.1,-0.1 0.2,-0.3 0.3,-0.4 0,0 0.1,-0.1 0.1,-0.1 0.5,-0.3 1.1,-0.8 1.6,-1.5 0.7,-0.4 1.2,-0.9 1.6,-1.6 l 0.1,-0.1 c 0.3,-0.3 0.9,-0.7 1.4,-1.4 1,-0.9 1.8,-1.8 2.4,-2.6 0.1,-0.2 0.3,-0.3 0.4,-0.5 0.3,-0.2 0.6,-0.4 0.8,-0.7 0.7,-0.7 1.3,-1.4 1.8,-2.1 0.3,-0.2 0.6,-0.4 0.9,-0.7 1.3,-1.4 2.7,-2.8 4.1,-4.3 l 0.5,-0.5 c 0.2,-0.2 0.4,-0.4 0.7,-0.7 0.2,0.2 0.3,0.4 0.5,0.6 0.4,0.4 1,1.1 1.3,1.6 0.2,0.4 0.4,0.7 0.6,1 0.9,1.2 1.4,2 1.7,2.4 0.1,0.2 0.1,0.3 0.2,0.5 0.2,0.4 0.3,0.8 0.5,1.3 0.3,0.7 0.6,1.7 1.1,2.6 0.1,0.3 0.3,0.5 0.6,0.8 0.1,0.3 0.3,0.7 0.4,0.9 0.1,1.2 0.3,1.7 0.5,2.2 z m -40.4,68.6 c 0.1,-0.6 0.3,-1.3 0.4,-2.1 0,0 0,-0.2 0,-0.2 0.1,-0.4 0.1,-0.9 0.2,-1.1 0.2,-0.5 0.2,-1.1 0.1,-1.7 0,-0.2 -0.1,-0.5 -0.1,-0.8 0,-0.5 0.1,-0.9 0.1,-1.2 0,-0.2 0,-0.5 -0.1,-0.7 0.2,-0.5 0.2,-1.1 0.2,-1.6 0.1,-0.5 0.1,-1.1 0,-1.7 0,-0.4 -0.2,-0.8 -0.3,-1.2 0.4,-1.2 0.4,-2.3 0.3,-2.9 0,0 0,-0.1 0,-0.1 0,-0.5 0,-1 -0.1,-1.5 0,0 0,0 0,0 0.1,-0.5 0.1,-1 0.1,-1.6 0,-0.3 -0.1,-0.6 -0.2,-0.9 0,-0.1 -0.1,-0.2 -0.1,-0.4 0.3,-1 0.1,-2.1 -0.4,-3 0,0 0,0 0,-0.1 0,-0.2 0.1,-0.3 0.1,-0.5 v -0.2 c 0.2,-0.7 0.2,-1.4 0.1,-2 0,-0.4 0,-0.7 0,-1.1 0.2,-0.5 0.3,-1 0.3,-1.5 0,-0.4 0,-0.8 0,-1.2 0.1,-0.3 0.1,-0.6 0.1,-0.9 0.1,0.1 0.2,0.1 0.3,0.2 0,0 0.1,0.1 0.1,0.1 0.4,0.4 0.9,0.9 1.5,1.5 0.2,0.3 0.4,0.5 0.6,0.6 0.2,0.2 0.3,0.3 0.4,0.5 0.3,0.4 0.8,1 1.7,1.7 0.1,0.1 0.3,0.2 0.4,0.3 0,0 0.1,0.1 0.1,0.1 0.3,0.5 0.8,1.1 1.5,1.7 0.4,0.7 1,1.2 1.6,1.6 l 0.1,0.1 c 0.3,0.4 0.7,0.9 1.4,1.4 0.9,1 1.9,1.8 2.6,2.3 0.2,0.1 0.4,0.3 0.5,0.4 0.2,0.3 0.4,0.6 0.7,0.8 0.7,0.7 1.4,1.3 2.1,1.8 0.2,0.4 0.5,0.7 0.8,0.9 1.5,1.4 3,2.9 4.5,4.3 0.7,0.6 1.3,1.3 2,1.9 0,0 0,0 0,0 -0.1,0.1 -0.2,0.1 -0.3,0.2 -0.6,0.1 -1.2,0.4 -1.7,0.8 l -0.4,0.3 c -0.4,0.1 -0.7,0.3 -1.1,0.5 -1.8,1.2 -3.3,1.9 -5.2,2.8 -0.9,0.4 -1.8,0.9 -2.9,1.4 -0.4,0.2 -0.8,0.5 -1.2,0.9 -0.2,0.1 -0.4,0.2 -0.7,0.3 0,0 0,0 0,0 -1.3,-0.3 -2.6,-0.1 -3.8,0.7 -0.2,0.1 -0.7,0.3 -1.6,0.5 -0.6,0.2 -1.2,0.3 -1.8,0.4 H 415 c -0.2,0 -0.4,0 -0.5,0.1 -0.5,0.1 -1.1,0.2 -1.6,0.3 -0.1,-0.5 -0.3,-0.9 -0.5,-1.3 -0.1,0.2 -0.1,0.1 -0.1,0.1 z m -5.3,12.7 c 0,0 0,-0.1 0,0 0,-0.1 0,0 0,0 z m -67.6,-61.5 c 0,0 0,0 0,0 0,0 0,0 0,0 z m -12.3,77.5 c 0,0 0,0 0,0 0,0 0,0 0,0 z M 316.2,287.3 Z m 8.1,88.1 v 0.6 0 z m -2.7,-2.1 c -0.1,0 -0.1,0 0,0 -0.1,0 -0.1,0 0,0 -0.1,0 -0.1,0 0,0 z m 80.9,148.6 z"
   id="path12" />
	</g>
</g>
</svg>
