<?xml version="1.0" encoding="iso-8859-1"?>
<!-- Uploaded to: SVG Repo, www.svgrepo.com, Generator: SVG Repo Mixer Tools -->
<!DOCTYPE svg PUBLIC "-//W3C//DTD SVG 1.1//EN" "http://www.w3.org/Graphics/SVG/1.1/DTD/svg11.dtd">
<svg fill="#000000" version="1.1" id="Capa_1" xmlns="http://www.w3.org/2000/svg" xmlns:xlink="http://www.w3.org/1999/xlink" 
	 width="800px" height="800px" viewBox="0 0 537.947 537.947"
	 xml:space="preserve">
<g>
	<path d="M268.974,0C120.411,0,0,120.411,0,268.974c0,148.563,120.411,268.973,268.974,268.973s268.973-120.334,268.973-268.973
		C537.947,120.334,417.537,0,268.974,0z M394.51,286.033c0,11.857-9.715,21.496-21.496,21.496h-64.566v64.566
		c0,11.857-9.715,21.496-21.496,21.496h-35.878c-11.857,0-21.497-9.715-21.497-21.496v-64.566h-64.566
		c-11.857,0-21.497-9.715-21.497-21.496v-35.878c0-11.857,9.715-21.497,21.497-21.497h64.566v-64.566
		c0-11.857,9.715-21.496,21.497-21.496h35.878c11.857,0,21.496,9.715,21.496,21.496v64.566h64.566
		c11.857,0,21.496,9.716,21.496,21.497V286.033z"/>
</g>
</svg>