<?xml version="1.0" encoding="UTF-8"?>
<svg id="Layer_2" xmlns="http://www.w3.org/2000/svg" viewBox="0 0 12.91 11.46">
  <defs>
    <style>
      .cls-1 {
        fill: #fff;
      }
    </style>
  </defs>
  <g id="Ebene_1">
    <g>
      <path class="cls-1" d="M6.45,3.08L1.78,6.33s-.03.02-.05.03v4.15c0,.52.42.95.95.95h2.33v-2.6c0-.35.28-.63.63-.63h1.62c.35,0,.63.28.63.63v2.6h2.29c.52,0,.95-.42.95-.95v-4.17s0,0,0,0l-4.67-3.25Z"/>
      <path class="cls-1" d="M11.13.63c0-.35-.28-.63-.63-.63h-.93c-.33,0-.6.26-.63.58l2.19,1.52V.63Z"/>
      <path class="cls-1" d="M11.67,5.56c.14.1.3.14.45.14.25,0,.5-.12.65-.34.25-.36.16-.85-.2-1.1L6.45,0,.34,4.26c-.36.25-.45.74-.2,1.1.16.22.4.34.65.34.16,0,.31-.05.45-.14L6.45,1.93l5.21,3.63Z"/>
    </g>
  </g>
</svg>