<?xml version="1.0" encoding="UTF-8"?>
<svg id="Layer_2" data-name="Layer 2" xmlns="http://www.w3.org/2000/svg" viewBox="0 0 9.4 9.41">
  <defs>
    <style>
      .cls-1 {
        fill: #fff;
      }
    </style>
  </defs>
  <g id="Layer_1-2" data-name="Layer 1">
    <g id="Ebene_1" data-name="Ebene 1">
      <path class="cls-1" d="M6.1,4.7l3-3c.4-.4.4-1,0-1.4s-1-.4-1.4,0l-3,3L1.7.3C1.3-.1.7-.1.3.3S-.1,1.3.3,1.7l3,3L.3,7.7c-.4.4-.4,1,0,1.4s.5.3.7.3.5,0,.7-.3l3-3,3,3c.2.2.5.3.7.3s.5,0,.7-.3c.4-.4.4-1,0-1.4l-3-3h0Z"/>
    </g>
  </g>
</svg>