
  <svg xmlns:dc="http://purl.org/dc/elements/1.1/" xmlns:cc="http://creativecommons.org/ns#" xmlns:rdf="http://www.w3.org/1999/02/22-rdf-syntax-ns#" xmlns:svg="http://www.w3.org/2000/svg" xmlns="http://www.w3.org/2000/svg" width="92" height="62" id="svg4690" version="1.1">
  <g id="layer1" transform="translate(-236.86814,-321.20795)">
    <path style="        color:#000000;        fill:#000000;        fill-opacity:1;        stroke:none;        stroke-width:1.91645455;        marker:none;        visibility:visible;        display:inline;        overflow:visible;        enable-background:accumulate;" d="m 255.24186,355.53205 0.0426,0.0114 -0.50052,0.75807 -16.86482,25.28928 -1.05098,1.61715 1.91036,-0.12867 30.34919,-1.93366 0.61214,-0.0647 0.0426,0.0114 0.0114,-0.0426 c 0.0628,-0.0361 24.1239,-13.85981 41.57341,-23.93025 l 0.31242,-2.95887 c 0.12449,-1.25914 0.17699,-2.42272 0.16648,-3.52414 l -39.89129,23.03125 -1.93113,6.78019 -0.0426,-0.0114 -0.128,-0.0343 -1.76584,-0.49603 1.92387,-6.66775 -5.78962,-10.15292 -9.14457,-5.40136 0.93854,-1.6244 0.0385,-0.0583 0.0114,-0.0426 8.91131,5.24735 41.62335,-24.03125 c -0.0901,-0.0888 -0.17839,-0.19198 -0.26865,-0.27791 -3.18829,-3.03113 -6.39352,-3.88641 -6.39352,-3.88641 l -3.84195,-1.02945 0.0114,-0.0426 -40.86558,23.59375 z m 50.09416,-28.92188 c 1.85561,0.89866 4.24095,2.30783 6.5124,4.46731 4.29404,4.0824 8.24356,11.08157 7.96278,21.16694 5.30104,-3.07097 8.94674,-5.18908 9.03494,-5.2885 -0.5658,-11.45659 -5.0097,-20.09251 -14.68749,-25.4395 l -8.82263,5.09375 z m -54.47182,39.02704 c 4.58146,2.24497 6.54982,5.83046 7.45499,8.97492 0.65992,2.29248 0.72292,4.23962 0.69401,5.26456 l -18.38317,1.15942 10.23417,-15.3989 z m 15.46444,-2.9023 2.56673,4.50811 2.51985,4.42691 0.54688,0.94722 0.17187,0.29769 0.0114,-0.0426 -0.20312,-0.35182 -0.5,-0.86602 40.29724,-23.26563 c -0.42145,-4.43364 -1.95691,-7.46974 -3.76039,-9.7007 l -0.27064,0.15625 -41.37977,23.89063 z" id="pencil"/>
  </g>
</svg>