<?xml version="1.0" encoding="UTF-8"?>
<svg id="Layer_2" xmlns="http://www.w3.org/2000/svg" viewBox="0 0 12.29 12.29">
  <defs>
    <style>
      .cls-1 {
        fill: #545454;
      }
    </style>
  </defs>
  <g id="Ebene_1">
    <path class="cls-1" d="M11.99,10.54l-2.94-2.94s-.07-.06-.11-.09c.5-.76.79-1.67.79-2.65C9.73,2.18,7.55,0,4.87,0S0,2.18,0,4.87s2.18,4.87,4.87,4.87c.98,0,1.89-.29,2.65-.79.03.04.05.07.09.11l2.94,2.94c.2.2.46.3.72.3s.52-.1.72-.3c.4-.4.4-1.05,0-1.45ZM4.87,8.19c-1.83,0-3.33-1.49-3.33-3.33s1.49-3.33,3.33-3.33,3.33,1.49,3.33,3.33-1.49,3.33-3.33,3.33Z"/>
  </g>
</svg>