<?xml version="1.0" encoding="UTF-8" standalone="no"?>
<svg
   xmlns:dc="http://purl.org/dc/elements/1.1/"
   xmlns:cc="http://creativecommons.org/ns#"
   xmlns:rdf="http://www.w3.org/1999/02/22-rdf-syntax-ns#"
   xmlns:svg="http://www.w3.org/2000/svg"
   xmlns="http://www.w3.org/2000/svg"
   xmlns:sodipodi="http://sodipodi.sourceforge.net/DTD/sodipodi-0.dtd"
   xmlns:inkscape="http://www.inkscape.org/namespaces/inkscape"
   version="1.1"
   id="Layer_1"
   x="0px"
   y="0px"
   viewBox="0 0 800 800"
   style="enable-background:new 0 0 800 800;"
   xml:space="preserve"
   sodipodi:docname="LearnCraft_Wheelless_Head_Blue.svg"
   inkscape:version="1.0.1 (c497b03c, 2020-09-10)"><metadata
   id="metadata158"><rdf:RDF><cc:Work
       rdf:about=""><dc:format>image/svg+xml</dc:format><dc:type
         rdf:resource="http://purl.org/dc/dcmitype/StillImage" /><dc:title /></cc:Work></rdf:RDF></metadata><defs
   id="defs156" /><sodipodi:namedview
   pagecolor="#ffffff"
   bordercolor="#666666"
   borderopacity="1"
   objecttolerance="10"
   gridtolerance="10"
   guidetolerance="10"
   inkscape:pageopacity="0"
   inkscape:pageshadow="2"
   inkscape:window-width="1440"
   inkscape:window-height="847"
   id="namedview154"
   showgrid="false"
   inkscape:zoom="0.79875"
   inkscape:cx="289.20188"
   inkscape:cy="401.25196"
   inkscape:window-x="0"
   inkscape:window-y="25"
   inkscape:window-maximized="0"
   inkscape:current-layer="Layer_1"
   inkscape:document-rotation="0" />
<style
   type="text/css"
   id="style135">
	.st0{fill:#449AC2;}
</style>
<g
   id="g151"
   transform="matrix(2.3124917,0,0,2.1995777,-549.13276,-498.33554)">
	<g
   id="g145">
		<polygon
   class="st0"
   points="447,567.8 447.1,568.6 447.1,567.9 "
   id="polygon137" />
		<polygon
   class="st0"
   points=""
   id="polygon139" />
		<path
   class="st0"
   d="m 299.1,518.6 c 0,-1 -0.1,-1.9 -0.1,-2.8 0.1,-0.3 0.1,-0.6 0.1,-0.9 l -0.1,-5.3 c 0,-0.7 -0.2,-1.5 -0.6,-2.1 l -0.6,-8.1 c -0.1,-1.9 -0.3,-4 -0.6,-6.1 0,-0.2 -0.1,-0.4 -0.1,-0.6 0,0 0,-0.2 0,-0.2 l -0.1,-0.9 c 0.1,-0.4 0.1,-0.9 -0.1,-1.4 -0.1,-0.2 -0.2,-0.5 -0.3,-0.7 -0.5,-1.6 -0.8,-3.3 -1.2,-5.1 -0.6,-3.1 -1.3,-6.2 -2.6,-9.2 -0.1,-0.3 -0.3,-0.7 -0.4,-1.1 0,-0.4 -0.1,-0.7 -0.3,-1 0,0 -0.1,-0.1 -0.1,-0.1 0,0 0,0 0,0 0,0 0,0 0,0 -0.5,-0.9 -1,-1.6 -1.4,-2.2 l -0.2,-0.3 c -0.1,-0.4 -0.3,-0.9 -0.7,-1.2 -0.5,-0.5 -1,-1.3 -1.4,-2 l -4.8,-8.6 c -0.1,-0.1 -0.1,-0.2 -0.2,-0.3 l -0.7,-1.1 c 0,-0.2 -0.1,-0.4 -0.2,-0.5 l -4.2,-7.5 c -0.1,-0.2 -0.3,-0.5 -0.6,-0.6 v -0.1 c -0.1,-0.3 -0.2,-0.5 -0.4,-0.8 0,-0.2 -0.1,-0.5 -0.2,-0.7 l -2.7,-4.8 c -0.1,-0.1 -0.2,-0.3 -0.3,-0.4 l -0.1,-0.1 c 0,-0.2 -0.1,-0.3 -0.2,-0.5 -0.4,-0.8 -0.8,-1.6 -1.2,-2.4 0,-0.1 -0.1,-0.2 -0.2,-0.3 0,-0.1 0,-0.1 -0.1,-0.2 -0.6,-1.4 -1.1,-2.9 -1.6,-4.3 -0.1,-0.3 -0.2,-0.5 -0.4,-0.7 0,0 -0.1,-0.1 -0.1,-0.1 0,-0.3 0,-0.6 -0.1,-0.9 l -1.9,-5.5 c -0.1,-0.2 -0.1,-0.3 -0.2,-0.5 -0.1,-0.1 -0.1,-0.2 -0.2,-0.3 0,-0.3 0,-0.5 -0.1,-0.8 l -2.2,-6.5 c -0.1,-0.4 -0.4,-0.7 -0.6,-1 0,0 0,-0.1 0,-0.1 0,-0.2 0,-0.4 0,-0.7 0,-0.2 0,-0.5 -0.1,-0.7 l -0.7,-2 c -0.2,-0.6 -0.5,-1.4 -0.6,-2.1 0,-0.1 -0.1,-0.2 -0.1,-0.3 0,-0.1 0,-0.3 -0.1,-0.4 0,-0.1 0,-0.2 0,-0.3 -0.1,-0.7 -0.1,-1.3 0,-1.8 0.1,-0.6 0,-1.1 -0.3,-1.6 -1,-1.6 -1.4,-3.9 -1.6,-5.9 -0.4,-3.3 -0.9,-7.1 -3.6,-9.9 l -0.2,-0.2 c -0.1,-0.1 -0.2,-0.2 -0.3,-0.3 -0.3,-0.5 -0.9,-0.9 -1.5,-1 l -0.4,-0.1 c -0.5,-0.1 -1.1,-0.1 -1.6,0 -1.2,0.2 -2.3,0.6 -3.3,1.3 -0.6,0.4 -1,1 -1.4,1.6 -0.4,0.7 -0.6,1.6 -0.7,2.5 -0.1,0.8 0.1,1.7 0.5,2.4 l 0.1,0.5 c 0,0.6 0.1,1.2 0.3,2 l 0.2,1.5 c 0.1,0.8 0.2,1.7 0.3,2.5 l 0.6,4.7 c 0.1,0.5 0.2,0.9 0.4,1.3 l 0.1,0.2 c -0.1,0.5 -0.1,1 0,1.5 l 0.1,0.8 c -0.1,0.5 -0.1,1 0,1.5 l 0.1,1 c 0.5,3.7 1,7.4 2.4,10.5 0.1,0.3 0.3,0.6 0.5,0.9 l 0.1,0.4 c 0.1,0.2 0.1,0.5 0.2,0.7 -0.3,1 -0.2,2 0.2,3 0.8,1.8 2.1,4.8 3.2,7.7 0,0.1 0.1,0.1 0.1,0.2 l 3,6.2 c 0,0.1 0.1,0.2 0.1,0.2 0.1,0.1 0.1,0.2 0.2,0.3 0.1,0.1 0.1,0.1 0.2,0.2 0,0.3 0.1,0.6 0.2,0.8 0.4,0.8 0.8,1.6 1.1,2.4 0.3,0.8 0.5,1.7 0.8,2.6 0.2,0.7 0.4,1.3 0.6,2 0.1,0.2 0.1,0.4 0.2,0.6 l 0.1,0.3 c 0.1,0.1 0.1,0.3 0.2,0.4 l 1,1.8 c 1.9,3.1 3.8,6.4 5.2,9.6 0.2,0.5 0.5,1 0.9,1.4 l 0.1,0.2 c 0.6,1 1.3,1.9 2,2.7 0.4,0.5 0.9,1.1 1.1,1.4 l 0.4,0.7 c 0,0.1 0.1,0.2 0.1,0.2 1.7,2.6 3.2,5.3 4.4,8 0.7,1.7 1.2,3 1.5,4.3 0.4,1.4 0.6,2.8 0.8,4.4 0.1,0.5 0.1,1 0.2,1.5 0.3,1.8 0.6,3.7 1.1,5.7 0,0.1 0.1,0.3 0.1,0.4 0.2,0.4 0.4,0.8 0.5,1.2 0.1,0.3 0.2,0.6 0.4,1 l 0.1,0.2 c 0.1,0.2 0.2,0.4 0.3,0.6 0.1,0.5 0.2,1.1 0.4,1.6 0.8,3.6 0.9,7.4 1,11.4 0.1,6 0,12.4 -0.1,19.6 v 0.6 c 0,0.3 0,0.7 0.1,1 0.4,1.6 0.6,3.3 0.7,5.4 0.8,8.9 1.6,18 1.4,27 v 0.6 c 0,1.6 -0.1,3.5 0.1,5.3 0.3,2.2 2.1,3.9 4.3,4.1 0.1,0 0.2,0 0.3,0 2.1,0 3.9,-1.4 4.5,-3.4 0.8,-2.9 0.8,-5.8 0.8,-8.4 l 0.1,-15.1 c 0,-0.4 0,-0.8 0.1,-1.1 0.1,-0.4 0.2,-0.9 0.2,-1.3 v -4.6 c 0,-0.1 0,-0.3 0,-0.3 v -1.3 c 0,-0.1 0,-0.2 0,-0.3 v -0.4 c 0,0 0,-0.1 0,-0.1 0,-0.1 0,-0.1 0,-0.2 v -1.6 c 0,0 0,-0.2 0,-0.2 V 536 c 0,-0.5 -0.1,-1 -0.2,-1.4 l -0.1,-0.5 c 0.2,-0.6 0.4,-1.2 0.4,-1.8 v -0.5 c 0,-0.2 0,-0.3 0,-0.5 v -3.8 c 0.2,-0.5 0.4,-1 0.4,-1.5 0.1,-1.2 0.2,-2.4 0.3,-3.5 l 0.1,-2.4 c 0,-0.1 0,-0.3 0,-0.4 z m -24.2,-70.1 z"
   id="path141" />
		<path
   class="st0"
   d="m 572.5,474.6 c 0,-1.2 0,-2.6 -0.3,-4 v -0.1 c 0,-0.2 0,-0.3 0,-0.4 v -0.2 c 0,-0.2 -0.1,-0.5 -0.2,-0.7 -0.1,-0.6 -0.3,-1.3 -0.5,-2 -0.1,-0.7 -0.3,-1.3 -2.1,-6 0,-0.1 -0.1,-0.2 -0.1,-0.3 l -0.5,-1 c -0.8,-1.7 -1.8,-4 -2.4,-5.3 l -2.5,-6 c -0.4,-1.3 -0.9,-2.6 -1.5,-4.3 -0.1,-0.6 -0.3,-1.2 -0.6,-1.7 -0.1,-0.2 -0.2,-0.3 -0.3,-0.5 l -1.5,-3.7 c -0.1,-0.4 -0.2,-0.8 -0.3,-1.2 l -1.7,-3.9 c -2.9,-7.3 -5.2,-13.4 -7,-19.8 -0.1,-0.5 -0.3,-0.9 -0.4,-1.3 l -0.2,-1 c -0.1,-0.3 -0.2,-0.7 -0.4,-1 l -0.4,-0.8 c 0.1,-0.6 0.1,-1.2 0,-1.7 -0.8,-4.1 -1.1,-7 -1.1,-8.5 -0.1,-1.7 -0.3,-2.8 -0.4,-3.9 l -0.1,-1.5 c -0.1,-1.1 -0.2,-2.3 -0.3,-3.5 l 0.2,-1.1 c 0,-0.3 0.1,-0.7 0,-1 v -0.3 c 0,-0.6 -0.2,-1.3 -0.5,-1.8 l -0.1,-0.9 c 0,-0.2 0,-0.4 0.1,-0.6 0,-0.2 0,-0.4 0,-0.6 l -0.1,-2 c 0,-0.2 0,-0.3 0.1,-0.5 0,-0.3 0.1,-0.6 0.1,-0.9 0,-0.6 0,-1.1 -0.1,-1.7 0.2,-0.6 0.3,-1.2 0.3,-1.8 v -1.6 c 0,-0.7 -0.2,-1.4 -0.5,-2 0,-0.4 -0.1,-0.9 -0.1,-1.3 l -0.7,-8.9 c 0,-0.2 0,-0.4 0,-0.6 -0.2,-1.1 -0.3,-2.3 -0.5,-3.6 0,-0.1 0,-0.4 -0.1,-0.5 0,-0.1 0,-0.2 -0.1,-0.3 -0.4,-2.2 -0.8,-4.4 -1.2,-6.5 -0.1,-0.5 -0.3,-1 -0.6,-1.5 l -0.1,-0.2 c -0.1,-0.1 -0.2,-0.3 -0.3,-0.7 0,-0.3 0,-0.6 -0.1,-0.9 0,-0.2 -0.1,-0.4 -0.1,-0.6 0.1,-0.6 0.1,-1.2 -0.1,-1.8 -2.8,-11.8 -8.3,-28.7 -18.1,-42.4 -0.1,-0.6 -0.4,-1.1 -0.7,-1.6 -1.1,-1.7 -2,-3.1 -2.9,-4.6 -0.8,-1.4 -1.7,-2.9 -2.7,-4.2 -0.2,-0.3 -0.4,-0.6 -0.7,-1 l -0.1,-0.1 c -1.5,-2.2 -3.2,-4.6 -6,-6.8 0,0 0,0 0,0 -0.2,-0.3 -0.4,-0.6 -0.6,-0.8 -0.4,-0.5 -0.9,-1 -1.5,-1.5 -0.2,-0.4 -0.5,-0.7 -0.8,-1 -5.4,-4.6 -11,-9.3 -16.7,-14 0,0 -0.1,-0.1 -0.2,-0.1 -6.2,-4.3 -12,-8.2 -17.7,-12 -1.9,-1.3 -3.9,-2.5 -6,-3.5 -0.1,0 -0.2,-0.1 -0.3,-0.1 l -0.2,-0.1 c -0.1,0 -0.2,-0.1 -0.3,-0.1 -8.7,-4.1 -17.9,-7.4 -27.3,-9.7 l -0.2,-0.1 c -12,-3.6 -25.2,-5 -39.4,-4.3 -1.3,0.1 -2.6,0.8 -3.5,1.9 -0.8,1.1 -1.1,2.6 -0.8,3.9 0.1,0.3 0.2,0.5 0.3,0.8 1.2,2.8 3.5,3.6 4.5,4 l 0.3,0.1 c 1,0.3 2,0.5 3,0.6 1.5,0.2 3,0.3 4.8,0.3 h 0.5 c 0.4,0.3 0.8,0.4 1.3,0.5 5.3,0.1 10.6,0.8 15.7,2 1.3,0.3 2.5,0.6 3.8,1 0.2,0.1 0.4,0.1 0.6,0.1 2.5,0.9 2.9,0.9 3.5,1 0.1,0 0.2,0 0.2,0 0.3,0.1 1.2,0.4 3.5,1.2 0.2,0.2 0.5,0.3 0.7,0.4 0.3,0.1 0.6,0.2 1,0.3 l 0.7,0.3 c 0.1,0 0.3,0.1 0.4,0.1 1.2,0.2 1.6,0.3 2.1,0.7 0.2,0.2 0.4,0.3 0.6,0.4 1.4,0.5 2.8,1.1 4.2,1.7 0.1,0 0.2,0.1 0.3,0.1 12.9,6 25.1,13.4 36.4,21.9 0.4,0.3 0.7,0.5 1.1,0.7 2,1.9 3.7,3.2 5.4,4.6 2.6,2.1 4.5,3.6 6.5,6.1 l 1.5,1.9 c 0.1,0.1 0.1,0.2 0.2,0.2 1.8,2 4.2,5 7.1,8.9 0.3,0.4 0.7,0.8 1.2,1.1 l 1.3,1.8 0.3,0.4 c 0.5,0.9 1.3,2.1 2.9,4.3 0.2,0.2 0.3,0.4 0.4,0.6 0.1,0.1 0.2,0.3 0.4,0.5 l 0.2,0.3 c 1.8,2.9 3.6,6 5.5,9.8 0.1,0.6 0.2,1.1 0.5,1.6 1.6,3.1 3.3,6.8 4.5,9.4 l 2.7,5.9 c 0,0.5 0.1,1 0.2,1.5 0.2,0.6 0.4,1.1 0.5,1.7 l 1.2,3.8 c 0,0.5 0,0.9 0.2,1.4 0.6,2.1 1,3.9 1.4,5.9 0.9,3.7 1.4,7 1.7,9.9 0,0.1 0,0.2 0,0.3 0.6,3.7 0.9,7.4 1.2,11 v 0.2 c 0.2,2.3 0.3,4.7 0.6,6.9 0,0.3 0.1,0.5 0.2,0.7 0.1,2.6 0.3,5.1 0.5,7.6 -0.4,0.7 -0.6,1.5 -0.5,2.3 0,0.3 0,0.6 0,1 0,0.1 0,0.2 0,0.3 1,9.4 4.6,25.2 8.2,36.9 0.2,0.7 0.6,1.3 1,1.8 0.9,3 1.9,6.3 3.3,9.3 0.3,0.7 0.6,1.4 1,2.1 0.3,0.6 0.6,1.2 0.8,1.7 0,0.7 0.1,1.4 0.4,2 0.2,0.5 0.4,0.8 0.5,1.1 0.2,0.3 0.4,0.7 0.6,0.9 0.2,0.9 0.5,1.8 0.9,2.8 0,0.5 0.2,1 0.4,1.5 l 5.7,12.5 c 0.9,2 1.7,3.5 1.7,5.2 0.1,1.3 -0.4,2.6 -1.3,3.5 -1.2,1.1 -3.2,1.7 -5.1,2.2 l -7.6,2.2 c -0.7,0.2 -1.6,0.5 -2.3,0.6 -0.1,0 -0.1,0 -0.2,0 -0.6,0.2 -1.1,0.3 -1.7,0.5 -1.1,0.3 -2.2,0.6 -3.4,1.1 -1.6,0.7 -2.9,1.7 -4.2,2.6 l -2.1,1.5 c -0.1,0.1 -0.2,0.1 -0.2,0.2 -3.1,2.9 -4.9,6.9 -5.8,12.4 -0.5,3.2 -1,6.5 -1.5,9.7 l -0.3,1.8 c -0.1,0.2 -0.1,0.4 -0.1,0.6 -0.1,2 -0.6,3.9 -1.1,6.1 -0.3,1.1 -0.5,2.2 -0.8,3.3 -0.7,3.2 -0.9,6.5 -1.1,9.7 -0.3,3.8 -0.5,7.4 -1.4,10.9 -0.3,1.1 -0.6,2.1 -1,3.2 -0.2,0.5 -0.4,1.1 -0.5,1.6 -0.1,0.2 -0.1,0.5 -0.1,0.7 0,0.3 0,0.6 -0.1,0.9 -0.1,0.7 -0.4,1.6 -0.8,2.5 0,0 0,0 0,0.1 l -1,2.4 c -0.2,0.4 -0.4,0.8 -0.6,1.2 -1.5,4.8 -3.7,7.7 -7,9.2 -4,1.9 -9.4,2 -14.7,2 h -0.9 c -0.9,0 -1.7,0 -2.3,0 -0.7,0 -1.4,0 -1.9,0.1 -0.3,0 -0.7,0.1 -1,0.1 -0.2,0 -0.4,0 -0.7,0.1 l -0.8,0.1 c -1.8,0.2 -3.5,0.4 -5,0.5 h -0.5 c -0.3,0 -0.5,0.1 -0.7,0.1 -1,0.1 -2.2,0.2 -3.3,0.3 -0.2,0 -0.5,0.1 -0.7,0.1 h -0.1 c -0.2,0 -0.4,0 -0.6,0 -0.5,0 -0.9,0 -1.4,0.1 -0.9,0 -1.9,0 -2.8,0 h -0.4 c -0.3,0 -0.5,0 -0.8,0 -0.4,-0.2 -0.8,-0.3 -1.2,-0.3 h -15.4 c -1.2,0 -2.4,0 -3.6,-0.1 -0.4,0 -0.8,0 -1.1,0.2 v 0 c -0.3,0 -0.6,0 -0.8,-0.1 -0.3,-0.3 -0.6,-0.5 -1,-0.6 -1.3,-0.4 -2.6,-0.9 -4,-1.4 l -0.2,-0.1 c -0.1,0 -0.1,0 -0.2,-0.1 -2.9,-0.9 -5.9,-2.1 -8.7,-3.7 -2.5,-1.4 -4.8,-3 -6.9,-4.5 -1.1,-1.1 -2.2,-2.3 -3.1,-3.6 l -2.6,-3.6 c -0.1,-0.4 -0.2,-0.8 -0.4,-1.2 -2.1,-4.6 -4.8,-10.3 -7.6,-15.7 -1,-1.9 -3.1,-2.9 -5.2,-2.3 -2.1,0.5 -3.5,2.4 -3.5,4.5 0,2.3 0.5,4.4 0.9,6.5 v 0.2 c 0.1,0.5 0.2,1.1 0.3,1.6 0.2,0.9 0.3,1.9 0.3,2.8 0,0.5 0.1,0.9 0.3,1.4 6.1,17.7 22.5,31 39.9,32.3 6.9,0.6 14,0.4 20.8,0.3 h 0.3 c 3.1,-0.1 6.2,-0.1 9.3,-0.1 h 2.9 c 0.4,0.1 0.9,0.2 1.5,0.2 0.5,0.2 1,0.3 1.6,0.3 h 4.4 c 1.8,0 3.8,0 5.8,0 3.7,0 6.7,0 9.5,-0.1 16,-0.6 26.4,-10.3 28.6,-26.8 1.2,-9.2 2.7,-18.6 4.2,-27.6 l 0.1,-0.3 c 1.3,-7.9 2.3,-14.5 3.3,-21.4 0.8,-5.6 3.7,-8.7 9.2,-9.9 3.5,-0.8 7,-1.7 10.2,-2.7 1.6,-0.3 3.3,-0.9 5.1,-1.7 0.2,-0.1 0.3,-0.2 0.5,-0.3 0.2,-0.1 0.3,-0.1 0.5,-0.2 l 0.1,-0.1 c 0.3,-0.2 0.7,-0.3 1.2,-0.6 l 1.6,-1 c 2.1,-1.4 3.8,-3 5,-4.9 0.2,-0.3 0.4,-0.5 0.5,-0.8 l 0.1,-0.1 c 0.1,-0.2 0.3,-0.4 0.4,-0.7 0.3,-0.7 0.6,-1.5 0.8,-2.4 0.2,-0.4 0.3,-0.8 0.4,-1.2 0.1,-0.3 0.1,-0.7 0.1,-1.1 0,0.5 0,0.1 -0.1,-0.4 z m -125.4,93.3 -0.1,0.8 v 0 z"
   id="path143" />
	</g>
	<g
   id="g149">
		
	</g>
</g>
<g
   inkscape:groupmode="layer"
   id="layer1"
   inkscape:label="Layer 1" /></svg>
